<svg width="359" height="297" viewBox="0 0 359 297" fill="none" xmlns="http://www.w3.org/2000/svg">
<g filter="url(#filter0_d_356_3730)">
<path d="M211.4 242.299C271.547 242.299 301.629 242.299 320.307 226.042C339 209.798 339 183.636 339 131.327C339 79.0174 339 52.8557 320.307 36.6121C301.629 20.3547 271.547 20.3547 211.4 20.3547H147.6C87.4526 20.3547 57.3708 20.3547 38.6934 36.6121C20 52.8557 20 79.0174 20 131.327C20 183.636 20 209.798 38.6934 226.042C49.1087 235.113 63.065 239.122 83.8 240.884" fill="white"/>
<path d="M211.4 242.299C191.686 242.299 169.962 249.235 150.136 258.182C118.268 272.566 102.334 279.766 94.4864 275.174C86.639 270.597 88.1224 256.378 91.105 227.956L91.7749 221.492" fill="white"/>
</g>
<defs>
<filter id="filter0_d_356_3730" x="0" y="0.354736" width="359" height="296.197" filterUnits="userSpaceOnUse" color-interpolation-filters="sRGB">
<feFlood flood-opacity="0" result="BackgroundImageFix"/>
<feColorMatrix in="SourceAlpha" type="matrix" values="0 0 0 0 0 0 0 0 0 0 0 0 0 0 0 0 0 0 127 0" result="hardAlpha"/>
<feOffset/>
<feGaussianBlur stdDeviation="10"/>
<feComposite in2="hardAlpha" operator="out"/>
<feColorMatrix type="matrix" values="0 0 0 0 0 0 0 0 0 0 0 0 0 0 0 0 0 0 0.1 0"/>
<feBlend mode="normal" in2="BackgroundImageFix" result="effect1_dropShadow_356_3730"/>
<feBlend mode="normal" in="SourceGraphic" in2="effect1_dropShadow_356_3730" result="shape"/>
</filter>
</defs>
</svg>
