<svg width="40" height="40" viewBox="0 0 40 40" fill="none" xmlns="http://www.w3.org/2000/svg">
<circle cx="20" cy="20" r="20" fill="#FFF9F0"/>
<g clip-path="url(#clip0_9034_6134)">
<path d="M26.2461 23.8765C25.462 23.1024 24.4832 23.1024 23.7041 23.8765C23.1098 24.4658 22.5155 25.0551 21.9312 25.6544C21.7713 25.8192 21.6365 25.8542 21.4417 25.7443C21.0572 25.5346 20.6477 25.3648 20.2781 25.135C18.5551 24.0513 17.1118 22.6579 15.8333 21.0897C15.199 20.3107 14.6347 19.4766 14.2401 18.5377C14.1602 18.3479 14.1752 18.2231 14.33 18.0683C14.9243 17.4939 15.5037 16.9046 16.088 16.3153C16.902 15.4963 16.902 14.5374 16.083 13.7133C15.6185 13.2439 15.1541 12.7844 14.6896 12.315C14.2102 11.8355 13.7357 11.3511 13.2513 10.8767C12.4672 10.1125 11.4883 10.1125 10.7093 10.8817C10.11 11.471 9.53562 12.0753 8.92633 12.6546C8.36199 13.189 8.07732 13.8432 8.01739 14.6073C7.9225 15.8509 8.22715 17.0245 8.65665 18.1682C9.53562 20.5354 10.8741 22.6379 12.4972 24.5657C14.6896 27.1726 17.3066 29.2352 20.368 30.7235C21.7464 31.3927 23.1747 31.9071 24.7279 31.992C25.7967 32.052 26.7256 31.7823 27.4697 30.9482C27.9791 30.3789 28.5534 29.8595 29.0928 29.3151C29.8919 28.5061 29.8969 27.5272 29.1028 26.7282C28.1539 25.7743 27.2 24.8254 26.2461 23.8765Z" fill="url(#paint0_linear_9034_6134)"/>
<path d="M25.2926 19.8961L27.1354 19.5815C26.8458 17.8885 26.0467 16.3553 24.8331 15.1367C23.5496 13.8532 21.9265 13.0441 20.1386 12.7944L19.8789 14.6473C21.2623 14.842 22.5208 15.4663 23.5147 16.4602C24.4536 17.3991 25.0679 18.5877 25.2926 19.8961Z" fill="url(#paint1_linear_9034_6134)"/>
<path d="M28.1739 11.8855C26.0464 9.75795 23.3545 8.41452 20.383 8L20.1233 9.85284C22.6903 10.2124 25.0176 11.3761 26.8554 13.2089C28.5984 14.9519 29.7421 17.1543 30.1566 19.5765L31.9994 19.2619C31.515 16.4551 30.1915 13.9081 28.1739 11.8855Z" fill="url(#paint2_linear_9034_6134)"/>
</g>
<defs>
<linearGradient id="paint0_linear_9034_6134" x1="10.1469" y1="32" x2="30.8893" y2="30.7911" gradientUnits="userSpaceOnUse">
<stop stop-color="#1FA07F"/>
<stop offset="1" stop-color="#228BB7"/>
</linearGradient>
<linearGradient id="paint1_linear_9034_6134" x1="20.597" y1="19.8961" x2="27.5338" y2="19.483" gradientUnits="userSpaceOnUse">
<stop stop-color="#1FA07F"/>
<stop offset="1" stop-color="#228BB7"/>
</linearGradient>
<linearGradient id="paint2_linear_9034_6134" x1="21.2985" y1="19.5765" x2="32.651" y2="18.8977" gradientUnits="userSpaceOnUse">
<stop stop-color="#1FA07F"/>
<stop offset="1" stop-color="#228BB7"/>
</linearGradient>
<clipPath id="clip0_9034_6134">
<rect width="24" height="24" fill="white" transform="translate(8 8)"/>
</clipPath>
</defs>
</svg>
